<?xml version="1.0" standalone="no"?><svg xmlns="http://www.w3.org/2000/svg" viewBox="0 0 1440 320"><path fill="#2b5770" fill-opacity="1" d="M0,256L17.1,250.7C34.3,245,69,235,103,197.3C137.1,160,171,96,206,69.3C240,43,274,53,309,74.7C342.9,96,377,128,411,144C445.7,160,480,160,514,160C548.6,160,583,160,617,149.3C651.4,139,686,117,720,133.3C754.3,149,789,203,823,229.3C857.1,256,891,256,926,213.3C960,171,994,85,1029,80C1062.9,75,1097,149,1131,176C1165.7,203,1200,181,1234,165.3C1268.6,149,1303,139,1337,117.3C1371.4,96,1406,64,1423,48L1440,32L1440,320L1422.9,320C1405.7,320,1371,320,1337,320C1302.9,320,1269,320,1234,320C1200,320,1166,320,1131,320C1097.1,320,1063,320,1029,320C994.3,320,960,320,926,320C891.4,320,857,320,823,320C788.6,320,754,320,720,320C685.7,320,651,320,617,320C582.9,320,549,320,514,320C480,320,446,320,411,320C377.1,320,343,320,309,320C274.3,320,240,320,206,320C171.4,320,137,320,103,320C68.6,320,34,320,17,320L0,320Z"></path></svg>